<?xml version="1.0" encoding="UTF-8"?><svg xmlns="http://www.w3.org/2000/svg" xmlns:xlink="http://www.w3.org/1999/xlink" fill-opacity="1" color-rendering="auto" color-interpolation="auto" text-rendering="auto" stroke="black" stroke-linecap="square" width="638" stroke-miterlimit="10" shape-rendering="auto" stroke-opacity="1" fill="black" stroke-dasharray="none" font-weight="normal" stroke-width="1" height="528" font-family="'Dialog'" font-style="normal" stroke-linejoin="miter" font-size="12px" stroke-dashoffset="0" image-rendering="auto">
  <!--Generated by ySVG 2.6-->
  <defs id="genericDefs"/>
  <g>
    <defs id="defs1">
      <clipPath clipPathUnits="userSpaceOnUse" id="clipPath1">
        <path d="M0 0 L638 0 L638 528 L0 528 L0 0 Z"/>
      </clipPath>
      <clipPath clipPathUnits="userSpaceOnUse" id="clipPath2">
        <path d="M493 139 L1131 139 L1131 667 L493 667 L493 139 Z"/>
      </clipPath>
    </defs>
    <g fill="white" text-rendering="geometricPrecision" shape-rendering="geometricPrecision" transform="translate(-493,-139)" stroke="white">
      <rect x="493" width="638" height="528" y="139" clip-path="url(#clipPath2)" stroke="none"/>
    </g>
    <g text-rendering="geometricPrecision" stroke-miterlimit="1.45" shape-rendering="geometricPrecision" transform="matrix(1,0,0,1,-493,-139)" stroke-linecap="butt">
      <rect x="508.5" y="171.6667" clip-path="url(#clipPath2)" fill="none" width="263" rx="30" ry="30" height="60"/>
      <text x="617.084" xml:space="preserve" y="205.821" clip-path="url(#clipPath2)" font-family="sans-serif" stroke="none">Начало</text>
    </g>
    <g text-rendering="geometricPrecision" stroke-miterlimit="1.45" shape-rendering="geometricPrecision" transform="matrix(1,0,0,1,-493,-139)" stroke-linecap="butt">
      <path fill="none" d="M831.625 154.6667 L791 154.6667 L791 248.6667 L831.625 248.6667" clip-path="url(#clipPath2)"/>
      <text x="807.792" xml:space="preserve" y="180.8991" clip-path="url(#clipPath2)" font-family="sans-serif" stroke="none">Алгоритм генерации карты высот</text>
      <text x="807.792" xml:space="preserve" y="194.8678" clip-path="url(#clipPath2)" font-family="sans-serif" stroke="none">Вход:</text>
      <text x="807.792" xml:space="preserve" y="208.8366" clip-path="url(#clipPath2)" font-family="sans-serif" stroke="none">Двумерный числовой массив A размером NxM</text>
      <text x="807.792" xml:space="preserve" y="222.8053" clip-path="url(#clipPath2)" font-family="sans-serif" stroke="none">Выход:</text>
      <text x="807.792" xml:space="preserve" y="236.7741" clip-path="url(#clipPath2)" font-family="sans-serif" stroke="none">Карта высот A со значениями высот z</text>
      <text x="807.792" xml:space="preserve" y="250.7428" clip-path="url(#clipPath2)" font-family="sans-serif" stroke="none"> </text>
    </g>
    <g text-rendering="geometricPrecision" stroke-miterlimit="1.45" shape-rendering="geometricPrecision" transform="matrix(1,0,0,1,-493,-139)" stroke-linecap="butt">
      <path fill="none" d="M518.5 241.6667 L761.5 241.6667 L771.5 251.6667 L771.5 301.6667 L508.5 301.6667 L508.5 251.6667 Z" clip-path="url(#clipPath2)"/>
      <text x="570.1914" xml:space="preserve" y="275.821" clip-path="url(#clipPath2)" font-family="sans-serif" stroke="none">Цикл по i от 0 до N - 1</text>
    </g>
    <g text-rendering="geometricPrecision" stroke-miterlimit="1.45" shape-rendering="geometricPrecision" transform="matrix(1,0,0,1,-493,-139)" stroke-linecap="butt">
      <path fill="none" d="M518.5 311.6667 L761.5 311.6667 L771.5 321.6667 L771.5 371.6667 L508.5 371.6667 L508.5 321.6667 Z" clip-path="url(#clipPath2)"/>
      <text x="569.5029" xml:space="preserve" y="345.821" clip-path="url(#clipPath2)" font-family="sans-serif" stroke="none">Цикл по j от 0 до M - 1</text>
    </g>
    <g text-rendering="geometricPrecision" stroke-miterlimit="1.45" shape-rendering="geometricPrecision" transform="matrix(1,0,0,1,-493,-139)" stroke-linecap="butt">
      <rect fill="none" x="508.5" width="263" height="60" y="381.6667" clip-path="url(#clipPath2)"/>
      <path fill="none" d="M518.5 381.6667 L518.5 441.6667 M761.5 381.6667 L761.5 441.6667 M518.5 381.6667 Z" clip-path="url(#clipPath2)"/>
      <text x="568.0908" xml:space="preserve" y="394.8678" clip-path="url(#clipPath2)" font-family="sans-serif" stroke="none">Вычисление значения </text>
      <text x="542.1162" xml:space="preserve" y="408.8366" clip-path="url(#clipPath2)" font-family="sans-serif" stroke="none">высоты z для A[i][j] c помощью</text>
      <text x="554.04" xml:space="preserve" y="422.8053" clip-path="url(#clipPath2)" font-family="sans-serif" stroke="none"> алгоритма шума Перлина </text>
      <text x="524.0459" xml:space="preserve" y="436.7741" clip-path="url(#clipPath2)" font-family="sans-serif" stroke="none">с использованием нескольких октав</text>
    </g>
    <g text-rendering="geometricPrecision" stroke-miterlimit="1.45" shape-rendering="geometricPrecision" transform="matrix(1,0,0,1,-493,-139)" stroke-linecap="butt">
      <path fill="none" d="M508.5 451.6667 L771.5 451.6667 L771.5 501.6667 L761.5 511.6667 L518.5 511.6667 L508.5 501.6667 Z" clip-path="url(#clipPath2)"/>
      <text x="586.2695" xml:space="preserve" y="485.821" clip-path="url(#clipPath2)" font-family="sans-serif" stroke="none">Конец цикла по j</text>
    </g>
    <g text-rendering="geometricPrecision" stroke-miterlimit="1.45" shape-rendering="geometricPrecision" transform="matrix(1,0,0,1,-493,-139)" stroke-linecap="butt">
      <path fill="none" d="M508.5 521.6667 L771.5 521.6667 L771.5 571.6667 L761.5 581.6667 L518.5 581.6667 L508.5 571.6667 Z" clip-path="url(#clipPath2)"/>
      <text x="586.2695" xml:space="preserve" y="555.821" clip-path="url(#clipPath2)" font-family="sans-serif" stroke="none">Конец цикла по i</text>
    </g>
    <g text-rendering="geometricPrecision" stroke-miterlimit="1.45" shape-rendering="geometricPrecision" transform="matrix(1,0,0,1,-493,-139)" stroke-linecap="butt">
      <rect x="508.5" y="591.6667" clip-path="url(#clipPath2)" fill="none" width="263" rx="30" ry="30" height="60"/>
      <text x="620.3711" xml:space="preserve" y="625.821" clip-path="url(#clipPath2)" font-family="sans-serif" stroke="none">Конец</text>
    </g>
    <g text-rendering="geometricPrecision" stroke-miterlimit="1.45" stroke-dasharray="6,2" shape-rendering="geometricPrecision" transform="matrix(1,0,0,1,-493,-139)" stroke-linecap="butt">
      <path fill="none" d="M790.9714 201.6667 L771.4734 201.6667" clip-path="url(#clipPath2)"/>
    </g>
    <g text-rendering="geometricPrecision" stroke-miterlimit="1.45" shape-rendering="geometricPrecision" transform="matrix(1,0,0,1,-493,-139)" stroke-linecap="butt">
      <path fill="none" d="M640 231.6423 L640 241.6874" clip-path="url(#clipPath2)"/>
      <path fill="none" d="M640 301.6422 L640 311.6874" clip-path="url(#clipPath2)"/>
      <path fill="none" d="M640 371.6422 L640 381.6874" clip-path="url(#clipPath2)"/>
      <path fill="none" d="M640 441.6422 L640 451.6874" clip-path="url(#clipPath2)"/>
      <path fill="none" d="M640 511.6422 L640 521.6874" clip-path="url(#clipPath2)"/>
      <path fill="none" d="M640 581.6423 L640 591.6874" clip-path="url(#clipPath2)"/>
    </g>
  </g>
</svg>
