<?xml version="1.0" encoding="UTF-8"?><svg xmlns="http://www.w3.org/2000/svg" xmlns:xlink="http://www.w3.org/1999/xlink" fill-opacity="1" color-rendering="auto" color-interpolation="auto" text-rendering="auto" stroke="black" stroke-linecap="square" width="591" stroke-miterlimit="10" shape-rendering="auto" stroke-opacity="1" fill="black" stroke-dasharray="none" font-weight="normal" stroke-width="1" height="977" font-family="'Dialog'" font-style="normal" stroke-linejoin="miter" font-size="12px" stroke-dashoffset="0" image-rendering="auto">
  <!--Generated by ySVG 2.6-->
  <defs id="genericDefs"/>
  <g>
    <defs id="defs1">
      <clipPath clipPathUnits="userSpaceOnUse" id="clipPath1">
        <path d="M0 0 L591 0 L591 977 L0 977 L0 0 Z"/>
      </clipPath>
      <clipPath clipPathUnits="userSpaceOnUse" id="clipPath2">
        <path d="M570 90 L1161 90 L1161 1067 L570 1067 L570 90 Z"/>
      </clipPath>
    </defs>
    <g fill="white" text-rendering="geometricPrecision" shape-rendering="geometricPrecision" transform="translate(-570,-90)" stroke="white">
      <rect x="570" width="591" height="977" y="90" clip-path="url(#clipPath2)" stroke="none"/>
    </g>
    <g text-rendering="geometricPrecision" stroke-miterlimit="1.45" shape-rendering="geometricPrecision" transform="matrix(1,0,0,1,-570,-90)" stroke-linecap="butt">
      <rect x="585.75" y="170" clip-path="url(#clipPath2)" fill="none" width="252.5" rx="26" ry="26" height="52"/>
      <text x="689.084" xml:space="preserve" y="200.1543" clip-path="url(#clipPath2)" font-family="sans-serif" stroke="none">Начало</text>
    </g>
    <g text-rendering="geometricPrecision" stroke-miterlimit="1.45" shape-rendering="geometricPrecision" transform="matrix(1,0,0,1,-570,-90)" stroke-linecap="butt">
      <path fill="none" d="M902.875 105.875 L868.25 105.875 L868.25 286.125 L902.875 286.125" clip-path="url(#clipPath2)"/>
      <text x="885.8203" xml:space="preserve" y="130.3105" clip-path="url(#clipPath2)" font-family="sans-serif" stroke="none">Алгоритм шума Перлина </text>
      <text x="885.8203" xml:space="preserve" y="144.2793" clip-path="url(#clipPath2)" font-family="sans-serif" stroke="none">с применением нескольких октав</text>
      <text x="885.8203" xml:space="preserve" y="158.248" clip-path="url(#clipPath2)" font-family="sans-serif" stroke="none">Вход:</text>
      <text x="885.8203" xml:space="preserve" y="172.2168" clip-path="url(#clipPath2)" font-family="sans-serif" stroke="none">Точка с координатами (x, y)</text>
      <text x="885.8203" xml:space="preserve" y="186.1855" clip-path="url(#clipPath2)" font-family="sans-serif" stroke="none">Параметры шума Перлина </text>
      <text x="885.8203" xml:space="preserve" y="200.1543" clip-path="url(#clipPath2)" font-family="sans-serif" stroke="none">(стойкость - persistense,</text>
      <text x="885.8203" xml:space="preserve" y="214.123" clip-path="url(#clipPath2)" font-family="sans-serif" stroke="none">лакунарность - lacunarity, </text>
      <text x="885.8203" xml:space="preserve" y="228.0918" clip-path="url(#clipPath2)" font-family="sans-serif" stroke="none">число октав - num_octaves)</text>
      <text x="885.8203" xml:space="preserve" y="242.0605" clip-path="url(#clipPath2)" font-family="sans-serif" stroke="none">Выход:</text>
      <text x="885.8203" xml:space="preserve" y="256.0293" clip-path="url(#clipPath2)" font-family="sans-serif" stroke="none">Значение шума Перлина z </text>
      <text x="885.8203" xml:space="preserve" y="269.998" clip-path="url(#clipPath2)" font-family="sans-serif" stroke="none">в точке с координатами (x, y)</text>
    </g>
    <g text-rendering="geometricPrecision" stroke-miterlimit="1.45" shape-rendering="geometricPrecision" transform="matrix(1,0,0,1,-570,-90)" stroke-linecap="butt">
      <path fill="none" d="M585.75 234 L838.25 234 L838.25 286 L585.75 286 Z" clip-path="url(#clipPath2)"/>
      <text x="669.1152" xml:space="preserve" y="264.1543" clip-path="url(#clipPath2)" font-family="sans-serif" stroke="none">frequency = 1</text>
    </g>
    <g text-rendering="geometricPrecision" stroke-miterlimit="1.45" shape-rendering="geometricPrecision" transform="matrix(1,0,0,1,-570,-90)" stroke-linecap="butt">
      <path fill="none" d="M585.75 296.5 L838.25 296.5 L838.25 348.5 L585.75 348.5 Z" clip-path="url(#clipPath2)"/>
      <text x="669.0215" xml:space="preserve" y="326.6543" clip-path="url(#clipPath2)" font-family="sans-serif" stroke="none">amplitude = 1</text>
    </g>
    <g text-rendering="geometricPrecision" stroke-miterlimit="1.45" shape-rendering="geometricPrecision" transform="matrix(1,0,0,1,-570,-90)" stroke-linecap="butt">
      <path fill="none" d="M585.75 359 L838.25 359 L838.25 411 L585.75 411 Z" clip-path="url(#clipPath2)"/>
      <text x="696.1914" xml:space="preserve" y="389.1543" clip-path="url(#clipPath2)" font-family="sans-serif" stroke="none">z = 0</text>
    </g>
    <g text-rendering="geometricPrecision" stroke-miterlimit="1.45" shape-rendering="geometricPrecision" transform="matrix(1,0,0,1,-570,-90)" stroke-linecap="butt">
      <path fill="none" d="M585.75 421.5 L838.25 421.5 L838.25 473.5 L585.75 473.5 Z" clip-path="url(#clipPath2)"/>
      <text x="668.5703" xml:space="preserve" y="451.6543" clip-path="url(#clipPath2)" font-family="sans-serif" stroke="none">sum_ampl = 0</text>
    </g>
    <g text-rendering="geometricPrecision" stroke-miterlimit="1.45" shape-rendering="geometricPrecision" transform="matrix(1,0,0,1,-570,-90)" stroke-linecap="butt">
      <path fill="none" d="M595.75 484 L828.25 484 L838.25 494 L838.25 536 L585.75 536 L585.75 494 Z" clip-path="url(#clipPath2)"/>
      <text x="658.3838" xml:space="preserve" y="507.1699" clip-path="url(#clipPath2)" font-family="sans-serif" stroke="none">Цикл по i от 0 до</text>
      <text x="660.4785" xml:space="preserve" y="521.1387" clip-path="url(#clipPath2)" font-family="sans-serif" stroke="none"> num_octaves - 1</text>
    </g>
    <g text-rendering="geometricPrecision" stroke-miterlimit="1.45" shape-rendering="geometricPrecision" transform="matrix(1,0,0,1,-570,-90)" stroke-linecap="butt">
      <rect fill="none" x="585.75" width="252.5" height="68" y="546.5" clip-path="url(#clipPath2)"/>
      <path fill="none" d="M595.75 546.5 L595.75 614.5 M828.25 546.5 L828.25 614.5 M595.75 546.5 Z" clip-path="url(#clipPath2)"/>
      <text x="688.0176" xml:space="preserve" y="570.6855" clip-path="url(#clipPath2)" font-family="sans-serif" stroke="none">z = z + </text>
      <text x="599.5498" xml:space="preserve" y="584.6543" clip-path="url(#clipPath2)" font-family="sans-serif" stroke="none">noise(x * frequency, y * frequency) * </text>
      <text x="679.6592" xml:space="preserve" y="598.623" clip-path="url(#clipPath2)" font-family="sans-serif" stroke="none">amplitude;</text>
    </g>
    <g text-rendering="geometricPrecision" stroke-miterlimit="1.45" shape-rendering="geometricPrecision" transform="matrix(1,0,0,1,-570,-90)" stroke-linecap="butt">
      <path fill="none" d="M585.75 625 L838.25 625 L838.25 677 L585.75 677 Z" clip-path="url(#clipPath2)"/>
      <text x="672.3877" xml:space="preserve" y="648.1699" clip-path="url(#clipPath2)" font-family="sans-serif" stroke="none">sum_ampl = </text>
      <text x="642.0684" xml:space="preserve" y="662.1387" clip-path="url(#clipPath2)" font-family="sans-serif" stroke="none">sum_ampl + amplitude</text>
    </g>
    <g text-rendering="geometricPrecision" stroke-miterlimit="1.45" shape-rendering="geometricPrecision" transform="matrix(1,0,0,1,-570,-90)" stroke-linecap="butt">
      <path fill="none" d="M585.75 687.5 L838.25 687.5 L838.25 739.5 L585.75 739.5 Z" clip-path="url(#clipPath2)"/>
      <text x="674.7461" xml:space="preserve" y="710.6699" clip-path="url(#clipPath2)" font-family="sans-serif" stroke="none">amplitude =</text>
      <text x="638.4092" xml:space="preserve" y="724.6387" clip-path="url(#clipPath2)" font-family="sans-serif" stroke="none"> amplitude * persistense</text>
    </g>
    <g text-rendering="geometricPrecision" stroke-miterlimit="1.45" shape-rendering="geometricPrecision" transform="matrix(1,0,0,1,-570,-90)" stroke-linecap="butt">
      <path fill="none" d="M585.75 750 L838.25 750 L838.25 802 L585.75 802 Z" clip-path="url(#clipPath2)"/>
      <text x="672.9326" xml:space="preserve" y="773.1699" clip-path="url(#clipPath2)" font-family="sans-serif" stroke="none">frequency = </text>
      <text x="644.998" xml:space="preserve" y="787.1387" clip-path="url(#clipPath2)" font-family="sans-serif" stroke="none">frequency * lacunarity</text>
    </g>
    <g text-rendering="geometricPrecision" stroke-miterlimit="1.45" shape-rendering="geometricPrecision" transform="matrix(1,0,0,1,-570,-90)" stroke-linecap="butt">
      <path fill="none" d="M585.75 812.5 L838.25 812.5 L838.25 854.5 L828.25 864.5 L595.75 864.5 L585.75 854.5 Z" clip-path="url(#clipPath2)"/>
      <text x="658.2695" xml:space="preserve" y="842.6543" clip-path="url(#clipPath2)" font-family="sans-serif" stroke="none">Конец цикла по i</text>
    </g>
    <g text-rendering="geometricPrecision" stroke-miterlimit="1.45" shape-rendering="geometricPrecision" transform="matrix(1,0,0,1,-570,-90)" stroke-linecap="butt">
      <path fill="none" d="M585.75 875 L838.25 875 L838.25 927 L585.75 927 Z" clip-path="url(#clipPath2)"/>
      <text x="660.2529" xml:space="preserve" y="905.1543" clip-path="url(#clipPath2)" font-family="sans-serif" stroke="none">z = z / sum_ampl</text>
    </g>
    <g text-rendering="geometricPrecision" stroke-miterlimit="1.45" shape-rendering="geometricPrecision" transform="matrix(1,0,0,1,-570,-90)" stroke-linecap="butt">
      <path fill="none" d="M585.75 937.5 L838.25 937.5 L838.25 989.5 L585.75 989.5 Z" clip-path="url(#clipPath2)"/>
      <text x="649.375" xml:space="preserve" y="967.6543" clip-path="url(#clipPath2)" font-family="sans-serif" stroke="none">Вернуть значение z</text>
    </g>
    <g text-rendering="geometricPrecision" stroke-miterlimit="1.45" shape-rendering="geometricPrecision" transform="matrix(1,0,0,1,-570,-90)" stroke-linecap="butt">
      <rect x="585.75" y="1000" clip-path="url(#clipPath2)" fill="none" width="252.5" rx="26" ry="26" height="52"/>
      <text x="692.3711" xml:space="preserve" y="1030.1543" clip-path="url(#clipPath2)" font-family="sans-serif" stroke="none">Конец</text>
    </g>
    <g text-rendering="geometricPrecision" stroke-miterlimit="1.45" stroke-dasharray="6,2" shape-rendering="geometricPrecision" transform="matrix(1,0,0,1,-570,-90)" stroke-linecap="butt">
      <path fill="none" d="M868.2621 196 L838.2381 196" clip-path="url(#clipPath2)"/>
    </g>
    <g text-rendering="geometricPrecision" stroke-miterlimit="1.45" shape-rendering="geometricPrecision" transform="matrix(1,0,0,1,-570,-90)" stroke-linecap="butt">
      <path fill="none" d="M712 221.9688 L712 233.9649" clip-path="url(#clipPath2)"/>
      <path fill="none" d="M712 285.9705 L712 296.4941" clip-path="url(#clipPath2)"/>
      <path fill="none" d="M712 348.4705 L712 358.9941" clip-path="url(#clipPath2)"/>
      <path fill="none" d="M712 410.9705 L712 421.4941" clip-path="url(#clipPath2)"/>
      <path fill="none" d="M712 473.4705 L712 483.9941" clip-path="url(#clipPath2)"/>
      <path fill="none" d="M712 535.99 L712 546.4655" clip-path="url(#clipPath2)"/>
      <path fill="none" d="M712 614.4763 L712 624.9983" clip-path="url(#clipPath2)"/>
      <path fill="none" d="M712 676.9705 L712 687.4941" clip-path="url(#clipPath2)"/>
      <path fill="none" d="M712 739.4705 L712 749.9941" clip-path="url(#clipPath2)"/>
      <path fill="none" d="M712 801.9705 L712 812.4941" clip-path="url(#clipPath2)"/>
      <path fill="none" d="M712 864.4705 L712 874.9941" clip-path="url(#clipPath2)"/>
      <path fill="none" d="M712 926.9705 L712 937.4941" clip-path="url(#clipPath2)"/>
      <path fill="none" d="M712 989.4705 L712 999.9941" clip-path="url(#clipPath2)"/>
    </g>
  </g>
</svg>
