<?xml version="1.0" encoding="UTF-8"?><svg xmlns="http://www.w3.org/2000/svg" xmlns:xlink="http://www.w3.org/1999/xlink" fill-opacity="1" color-rendering="auto" color-interpolation="auto" text-rendering="auto" stroke="black" stroke-linecap="square" width="604" stroke-miterlimit="10" shape-rendering="auto" stroke-opacity="1" fill="black" stroke-dasharray="none" font-weight="normal" stroke-width="1" height="648" font-family="'Dialog'" font-style="normal" stroke-linejoin="miter" font-size="12px" stroke-dashoffset="0" image-rendering="auto">
  <!--Generated by ySVG 2.6-->
  <defs id="genericDefs"/>
  <g>
    <defs id="defs1">
      <clipPath clipPathUnits="userSpaceOnUse" id="clipPath1">
        <path d="M0 0 L604 0 L604 648 L0 648 L0 0 Z"/>
      </clipPath>
      <clipPath clipPathUnits="userSpaceOnUse" id="clipPath2">
        <path d="M452 84 L1056 84 L1056 732 L452 732 L452 84 Z"/>
      </clipPath>
    </defs>
    <g fill="white" text-rendering="geometricPrecision" shape-rendering="geometricPrecision" transform="translate(-452,-84)" stroke="white">
      <rect x="452" width="604" height="648" y="84" clip-path="url(#clipPath2)" stroke="none"/>
    </g>
    <g text-rendering="geometricPrecision" stroke-miterlimit="1.45" shape-rendering="geometricPrecision" transform="matrix(1,0,0,1,-452,-84)" stroke-linecap="butt">
      <rect x="467.4601" y="129.0848" clip-path="url(#clipPath2)" fill="none" width="307.0797" rx="24.9152" ry="24.9152" height="49.8304"/>
      <text x="598.084" xml:space="preserve" y="158.1543" clip-path="url(#clipPath2)" font-family="sans-serif" stroke="none">Начало</text>
    </g>
    <g text-rendering="geometricPrecision" stroke-miterlimit="1.45" shape-rendering="geometricPrecision" transform="matrix(1,0,0,1,-452,-84)" stroke-linecap="butt">
      <path fill="none" d="M834.0399 99.5 L804.5399 99.5 L804.5399 208.5 L834.0399 208.5" clip-path="url(#clipPath2)"/>
      <text x="815.6453" xml:space="preserve" y="116.6387" clip-path="url(#clipPath2)" font-family="sans-serif" stroke="none">Алгоритм Шума Перлина</text>
      <text x="815.6453" xml:space="preserve" y="130.6074" clip-path="url(#clipPath2)" font-family="sans-serif" stroke="none">Вход:</text>
      <text x="815.6453" xml:space="preserve" y="144.5762" clip-path="url(#clipPath2)" font-family="sans-serif" stroke="none">Точка с координатами (x, y)</text>
      <text x="815.6453" xml:space="preserve" y="158.5449" clip-path="url(#clipPath2)" font-family="sans-serif" stroke="none">Выход:</text>
      <text x="815.6453" xml:space="preserve" y="172.5137" clip-path="url(#clipPath2)" font-family="sans-serif" stroke="none">Значение высоты z в точке </text>
      <text x="815.6453" xml:space="preserve" y="186.4824" clip-path="url(#clipPath2)" font-family="sans-serif" stroke="none">с координатами (x, y)</text>
      <text x="815.6453" xml:space="preserve" y="200.4512" clip-path="url(#clipPath2)" font-family="sans-serif" stroke="none">в интервале [0, 1]</text>
    </g>
    <g text-rendering="geometricPrecision" stroke-miterlimit="1.45" shape-rendering="geometricPrecision" transform="matrix(1,0,0,1,-452,-84)" stroke-linecap="butt">
      <path fill="none" d="M467.4601 188.7221 L774.5399 188.7221 L774.5399 247.1541 L467.4601 247.1541 Z" clip-path="url(#clipPath2)"/>
      <text x="507.5684" xml:space="preserve" y="215.108" clip-path="url(#clipPath2)" font-family="sans-serif" stroke="none">Вычисление единичного квадрата  </text>
      <text x="518.6279" xml:space="preserve" y="229.0768" clip-path="url(#clipPath2)" font-family="sans-serif" stroke="none">для точки с координатами (x, y)</text>
    </g>
    <g text-rendering="geometricPrecision" stroke-miterlimit="1.45" shape-rendering="geometricPrecision" transform="matrix(1,0,0,1,-452,-84)" stroke-linecap="butt">
      <path fill="none" d="M467.4601 256.961 L774.5399 256.961 L774.5399 315.393 L467.4601 315.393 Z" clip-path="url(#clipPath2)"/>
      <text x="492.6475" xml:space="preserve" y="276.3625" clip-path="url(#clipPath2)" font-family="sans-serif" stroke="none">Вычисление псевдослучайного вектора </text>
      <text x="516.7031" xml:space="preserve" y="290.3313" clip-path="url(#clipPath2)" font-family="sans-serif" stroke="none">градиента для каждой вершины</text>
      <text x="551.9268" xml:space="preserve" y="304.3" clip-path="url(#clipPath2)" font-family="sans-serif" stroke="none">единичного квадрата</text>
    </g>
    <g text-rendering="geometricPrecision" stroke-miterlimit="1.45" shape-rendering="geometricPrecision" transform="matrix(1,0,0,1,-452,-84)" stroke-linecap="butt">
      <rect fill="none" x="467.4601" width="307.0797" height="58.432" y="461.6777" clip-path="url(#clipPath2)"/>
      <path fill="none" d="M477.4601 461.6777 L477.4601 520.1097 M764.5399 461.6777 L764.5399 520.1097 M477.4601 461.6777 Z" clip-path="url(#clipPath2)"/>
      <text x="549.5098" xml:space="preserve" y="488.0636" clip-path="url(#clipPath2)" font-family="sans-serif" stroke="none">Применение функции </text>
      <text x="526.6758" xml:space="preserve" y="502.0323" clip-path="url(#clipPath2)" font-family="sans-serif" stroke="none">сглаживания к координате x </text>
    </g>
    <g text-rendering="geometricPrecision" stroke-miterlimit="1.45" shape-rendering="geometricPrecision" transform="matrix(1,0,0,1,-452,-84)" stroke-linecap="butt">
      <rect fill="none" x="467.4601" width="307.0797" height="58.432" y="529.9166" clip-path="url(#clipPath2)"/>
      <path fill="none" d="M477.4601 529.9166 L477.4601 588.3486 M764.5399 529.9166 L764.5399 588.3486 M477.4601 529.9166 Z" clip-path="url(#clipPath2)"/>
      <text x="549.5098" xml:space="preserve" y="556.3025" clip-path="url(#clipPath2)" font-family="sans-serif" stroke="none">Применение функции </text>
      <text x="528.583" xml:space="preserve" y="570.2712" clip-path="url(#clipPath2)" font-family="sans-serif" stroke="none">сглаживания к координате y</text>
    </g>
    <g text-rendering="geometricPrecision" stroke-miterlimit="1.45" shape-rendering="geometricPrecision" transform="matrix(1,0,0,1,-452,-84)" stroke-linecap="butt">
      <path fill="none" d="M467.4601 325.1999 L774.5399 325.1999 L774.5399 383.6319 L467.4601 383.6319 Z" clip-path="url(#clipPath2)"/>
      <text x="491.9941" xml:space="preserve" y="344.6014" clip-path="url(#clipPath2)" font-family="sans-serif" stroke="none">Вычисление векторов, идущих  от точек</text>
      <text x="522.0586" xml:space="preserve" y="358.5702" clip-path="url(#clipPath2)" font-family="sans-serif" stroke="none">единичного квадрата до точки</text>
      <text x="552.2695" xml:space="preserve" y="372.5389" clip-path="url(#clipPath2)" font-family="sans-serif" stroke="none">с координатами (x, y)</text>
    </g>
    <g text-rendering="geometricPrecision" stroke-miterlimit="1.45" shape-rendering="geometricPrecision" transform="matrix(1,0,0,1,-452,-84)" stroke-linecap="butt">
      <path fill="none" d="M467.4601 393.4388 L774.5399 393.4388 L774.5399 451.8708 L467.4601 451.8708 Z" clip-path="url(#clipPath2)"/>
      <text x="497.2969" xml:space="preserve" y="405.856" clip-path="url(#clipPath2)" font-family="sans-serif" stroke="none">Вычисление скалярных произведений </text>
      <text x="490.0752" xml:space="preserve" y="419.8247" clip-path="url(#clipPath2)" font-family="sans-serif" stroke="none">векторов градиента и соответствующих </text>
      <text x="473.417" xml:space="preserve" y="433.7935" clip-path="url(#clipPath2)" font-family="sans-serif" stroke="none">им векторов от вершин единичного квадрата </text>
      <text x="522.4014" xml:space="preserve" y="447.7622" clip-path="url(#clipPath2)" font-family="sans-serif" stroke="none">до точки с координатами (x, y)</text>
    </g>
    <g text-rendering="geometricPrecision" stroke-miterlimit="1.45" shape-rendering="geometricPrecision" transform="matrix(1,0,0,1,-452,-84)" stroke-linecap="butt">
      <rect fill="none" x="467.4601" width="307.0797" height="58.432" y="598.1555" clip-path="url(#clipPath2)"/>
      <path fill="none" d="M477.4601 598.1555 L477.4601 656.5875 M764.5399 598.1555 L764.5399 656.5875 M477.4601 598.1555 Z" clip-path="url(#clipPath2)"/>
      <text x="544.0342" xml:space="preserve" y="624.5414" clip-path="url(#clipPath2)" font-family="sans-serif" stroke="none">Вычисление значения z </text>
      <text x="518.6279" xml:space="preserve" y="638.5101" clip-path="url(#clipPath2)" font-family="sans-serif" stroke="none">для точки с координатами (x, y)</text>
    </g>
    <g text-rendering="geometricPrecision" stroke-miterlimit="1.45" shape-rendering="geometricPrecision" transform="matrix(1,0,0,1,-452,-84)" stroke-linecap="butt">
      <path fill="none" d="M831.6209 592.6439 L804.5399 592.6439 L804.5399 662.0991 L831.6209 662.0991" clip-path="url(#clipPath2)"/>
      <text x="811.9633" xml:space="preserve" y="609.7825" clip-path="url(#clipPath2)" font-family="sans-serif" stroke="none">Производится путем</text>
      <text x="811.9633" xml:space="preserve" y="623.7513" clip-path="url(#clipPath2)" font-family="sans-serif" stroke="none">двумерной интерполяции </text>
      <text x="811.9633" xml:space="preserve" y="637.72" clip-path="url(#clipPath2)" font-family="sans-serif" stroke="none">полученных скалярных </text>
      <text x="811.9633" xml:space="preserve" y="651.6888" clip-path="url(#clipPath2)" font-family="sans-serif" stroke="none">произведений</text>
    </g>
    <g text-rendering="geometricPrecision" stroke-miterlimit="1.45" shape-rendering="geometricPrecision" transform="matrix(1,0,0,1,-452,-84)" stroke-linecap="butt">
      <rect x="467.4601" y="666.3944" clip-path="url(#clipPath2)" fill="none" width="307.0797" rx="24.9152" ry="24.9152" height="49.8304"/>
      <text x="601.3711" xml:space="preserve" y="695.4639" clip-path="url(#clipPath2)" font-family="sans-serif" stroke="none">Конец</text>
    </g>
    <g text-rendering="geometricPrecision" stroke-miterlimit="1.45" stroke-dasharray="6,2" shape-rendering="geometricPrecision" transform="matrix(1,0,0,1,-452,-84)" stroke-linecap="butt">
      <path fill="none" d="M804.5668 154 L774.4952 154" clip-path="url(#clipPath2)"/>
    </g>
    <g text-rendering="geometricPrecision" stroke-miterlimit="1.45" shape-rendering="geometricPrecision" transform="matrix(1,0,0,1,-452,-84)" stroke-linecap="butt">
      <path fill="none" d="M621 178.9446 L621 188.731" clip-path="url(#clipPath2)"/>
      <path fill="none" d="M621 247.1232 L621 256.9974" clip-path="url(#clipPath2)"/>
      <path fill="none" d="M621 520.1151 L621 529.9076" clip-path="url(#clipPath2)"/>
      <path fill="none" d="M621 315.3984 L621 325.1909" clip-path="url(#clipPath2)"/>
      <path fill="none" d="M621 383.6373 L621 393.4298" clip-path="url(#clipPath2)"/>
      <path fill="none" d="M621 451.8762 L621 461.6687" clip-path="url(#clipPath2)"/>
      <path fill="none" d="M621 588.354 L621 598.1465" clip-path="url(#clipPath2)"/>
      <path fill="none" stroke-dasharray="6,2" d="M804.5195 627.3715 L774.5452 627.3715" clip-path="url(#clipPath2)"/>
      <path fill="none" d="M621 656.562 L621 666.3687" clip-path="url(#clipPath2)"/>
    </g>
  </g>
</svg>
